# Blender v2.79 (sub 0) OBJ File: 'Assets.blend'
# www.blender.org
o Plane_Plane.003
v -43.274075 37.313210 -30.000000
v 43.274075 37.313210 -30.000000
v -43.258976 0.000000 19.761435
v 43.258976 0.000000 19.761435
v -43.258976 0.000000 -20.000000
v -43.263023 10.000000 -30.000000
v -43.259026 0.123116 -21.564344
v -43.259174 0.489434 -23.090170
v -43.259418 1.089934 -24.539906
v -43.259750 1.909830 -25.877853
v -43.260162 2.928932 -27.071068
v -43.260643 4.122148 -28.090172
v -43.261185 5.460095 -28.910065
v -43.261772 6.909830 -29.510567
v -43.262390 8.435656 -29.876884
v 43.263023 9.999999 -30.000000
v 43.258976 0.000000 -20.000000
v 43.262390 8.435655 -29.876884
v 43.261772 6.909829 -29.510567
v 43.261185 5.460094 -28.910065
v 43.260647 4.122147 -28.090170
v 43.260162 2.928932 -27.071068
v 43.259750 1.909829 -25.877851
v 43.259418 1.089934 -24.539906
v 43.259174 0.489434 -23.090170
v 43.259026 0.123116 -21.564344
vt 0.000273 0.456645
vt 0.993683 0.000100
vt 0.993683 0.456645
vt 0.000227 0.686287
vt 0.993722 0.668325
vt 0.993729 0.686287
vt 0.000234 0.668325
vt 0.993715 0.650805
vt 0.000248 0.634159
vt 0.993708 0.634159
vt 0.000254 0.618797
vt 0.993702 0.618797
vt 0.993683 0.571466
vt 0.000264 0.524135
vt 0.993692 0.524135
vt 0.000268 0.508772
vt 0.993688 0.508772
vt 0.993685 0.492126
vt 0.000271 0.492126
vt 0.993683 0.474607
vt 0.000272 0.474607
vt 0.000100 0.999900
vt 0.993856 0.999900
vt 0.000273 0.000100
vt 0.000241 0.650805
vt 0.000273 0.571466
vn 0.0000 0.9992 0.0392
vn 0.0000 1.0000 0.0000
vn 0.0000 0.0392 0.9992
vn 0.0000 0.1564 0.9877
vn 0.0000 0.3090 0.9510
vn 0.0000 0.4540 0.8910
vn 0.0000 0.5878 0.8090
vn 0.0000 0.7071 0.7071
vn 0.0000 0.8090 0.5878
vn 0.0000 0.8910 0.4540
vn 0.0000 0.9510 0.3090
vn 0.0000 0.9877 0.1564
vn 0.0000 0.0000 1.0000
s 1
f 5/1/1 4/2/2 17/3/1
f 6/4/3 18/5/4 16/6/3
f 15/7/4 19/8/5 18/5/4
f 19/8/5 13/9/6 20/10/6
f 20/10/6 12/11/7 21/12/7
f 12/11/7 22/13/8 21/12/7
f 22/13/8 10/14/9 23/15/9
f 23/15/9 9/16/10 24/17/10
f 9/16/10 25/18/11 24/17/10
f 8/19/11 26/20/12 25/18/11
f 7/21/12 17/3/1 26/20/12
f 1/22/13 16/6/3 2/23/13
f 5/1/1 3/24/2 4/2/2
f 6/4/3 15/7/4 18/5/4
f 15/7/4 14/25/5 19/8/5
f 19/8/5 14/25/5 13/9/6
f 20/10/6 13/9/6 12/11/7
f 12/11/7 11/26/8 22/13/8
f 22/13/8 11/26/8 10/14/9
f 23/15/9 10/14/9 9/16/10
f 9/16/10 8/19/11 25/18/11
f 8/19/11 7/21/12 26/20/12
f 7/21/12 5/1/1 17/3/1
f 1/22/13 6/4/3 16/6/3
